<?xml version="1.0" encoding="UTF-8" standalone="no"?>
<!-- Created with Inkscape (http://www.inkscape.org/) -->

<svg
   width="1080"
   height="1080"
   viewBox="0 0 1080 1080"
   version="1.1"
   id="svg1"
   inkscape:version="1.4.2 (f4327f4, 2025-05-13)"
   sodipodi:docname="nk.svg"
   xmlns:inkscape="http://www.inkscape.org/namespaces/inkscape"
   xmlns:sodipodi="http://sodipodi.sourceforge.net/DTD/sodipodi-0.dtd"
   xmlns="http://www.w3.org/2000/svg"
   xmlns:svg="http://www.w3.org/2000/svg">
  <sodipodi:namedview
     id="namedview1"
     pagecolor="#ffffff"
     bordercolor="#000000"
     borderopacity="0.25"
     inkscape:showpageshadow="false"
     inkscape:pageopacity="0.0"
     inkscape:pagecheckerboard="0"
     inkscape:deskcolor="#d1d1d1"
     inkscape:document-units="px"
     inkscape:clip-to-page="true"
     showgrid="true"
     inkscape:zoom="0.70710678"
     inkscape:cx="195.86858"
     inkscape:cy="457.49809"
     inkscape:window-width="1920"
     inkscape:window-height="1009"
     inkscape:window-x="-8"
     inkscape:window-y="-8"
     inkscape:window-maximized="1"
     inkscape:current-layer="layer3"
     showguides="true">
    <inkscape:grid
       id="grid1"
       units="px"
       originx="0"
       originy="0"
       spacingx="1"
       spacingy="1"
       empcolor="#0099e5"
       empopacity="0.30196078"
       color="#0099e5"
       opacity="0.14901961"
       empspacing="4"
       enabled="true"
       visible="true" />
  </sodipodi:namedview>
  <defs
     id="defs1" />
  <g
     inkscape:groupmode="layer"
     id="layer2"
     inkscape:label="tetris"
     inkscape:highlight-color="#7f7fff">
    <path
       style="fill:none;fill-opacity:0;stroke:#000000;stroke-width:12;stroke-linecap:round;stroke-linejoin:round;stroke-miterlimit:0;stroke-opacity:1"
       d="M 198,222 V 198 H 174 V 174"
       id="path1" />
    <path
       style="fill:none;fill-opacity:0;stroke:#000000;stroke-width:12;stroke-linecap:round;stroke-linejoin:round;stroke-miterlimit:0;stroke-opacity:1"
       d="M 246,246 V 174"
       id="path2" />
    <path
       style="fill:none;fill-opacity:0;stroke:#000000;stroke-width:12;stroke-linecap:round;stroke-linejoin:round;stroke-miterlimit:0;stroke-opacity:1"
       d="m 174,222 v 72"
       id="path3" />
    <path
       style="fill:none;fill-opacity:0;stroke:#000000;stroke-width:12;stroke-linecap:round;stroke-linejoin:round;stroke-miterlimit:0;stroke-opacity:1"
       d="m 222,246 v 24 h 24 v 24"
       id="path4" />
    <path
       style="fill:none;fill-opacity:0;stroke:#000000;stroke-width:12;stroke-linecap:round;stroke-linejoin:round;stroke-miterlimit:0;stroke-opacity:1"
       d="m 306,222 v -24 h 24 v -24"
       id="path5" />
    <path
       style="fill:none;fill-opacity:0;stroke:#000000;stroke-width:12;stroke-linecap:round;stroke-linejoin:round;stroke-miterlimit:0;stroke-opacity:1"
       d="M 378,222 V 198 H 354 V 174"
       id="path7" />
    <path
       style="fill:none;fill-opacity:0;stroke:#000000;stroke-width:12;stroke-linecap:round;stroke-linejoin:round;stroke-miterlimit:0;stroke-opacity:1"
       d="m 306,246 v 48"
       id="path8" />
    <path
       style="fill:none;fill-opacity:0;stroke:#000000;stroke-width:12;stroke-linecap:round;stroke-linejoin:round;stroke-miterlimit:0;stroke-opacity:1"
       d="m 378,246 v 48"
       id="path9" />
    <path
       style="fill:none;fill-opacity:0;stroke:#000000;stroke-width:12;stroke-linecap:round;stroke-linejoin:round;stroke-miterlimit:0;stroke-opacity:1"
       d="M 462,222 V 198 H 438 V 174"
       id="path10" />
    <path
       style="fill:none;fill-opacity:0;stroke:#000000;stroke-width:12;stroke-linecap:round;stroke-linejoin:round;stroke-miterlimit:0;stroke-opacity:1"
       d="m 486,222 v -24 h 24 v -24"
       id="path11" />
    <path
       style="fill:none;fill-opacity:0;stroke:#000000;stroke-width:12;stroke-linecap:round;stroke-linejoin:round;stroke-miterlimit:0;stroke-opacity:1"
       d="m 438,222 v 72"
       id="path12" />
    <path
       style="fill:none;fill-opacity:0;stroke:#000000;stroke-width:12;stroke-linecap:round;stroke-linejoin:round;stroke-miterlimit:0;stroke-opacity:1"
       d="m 510,222 v 72"
       id="path13" />
    <path
       style="fill:none;fill-opacity:0;stroke:#000000;stroke-width:12;stroke-linecap:round;stroke-linejoin:round;stroke-miterlimit:0;stroke-opacity:1"
       d="M 594,222 H 570 V 174"
       id="path14" />
    <path
       style="fill:none;fill-opacity:0;stroke:#000000;stroke-width:12;stroke-linecap:round;stroke-linejoin:round;stroke-miterlimit:0;stroke-opacity:1"
       d="m 618,222 v -24 h 24 v -24"
       id="path15" />
    <path
       style="fill:none;fill-opacity:0;stroke:#000000;stroke-width:12;stroke-linecap:round;stroke-linejoin:round;stroke-miterlimit:0;stroke-opacity:1"
       d="m 594,246 h -24 v 48"
       id="path16" />
    <path
       style="fill:none;fill-opacity:0;stroke:#000000;stroke-width:12;stroke-linecap:round;stroke-linejoin:round;stroke-miterlimit:0;stroke-opacity:1"
       d="m 618,246 v 24 h 24 v 24"
       id="path17" />
    <path
       style="fill:none;fill-opacity:0;stroke:#000000;stroke-width:12;stroke-linecap:round;stroke-linejoin:round;stroke-miterlimit:0;stroke-opacity:1"
       d="M 726,222 H 702 V 174"
       id="path18" />
    <path
       style="fill:none;fill-opacity:0;stroke:#000000;stroke-width:12;stroke-linecap:round;stroke-linejoin:round;stroke-miterlimit:0;stroke-opacity:1"
       d="m 750,222 h 24 v -48"
       id="path19" />
    <path
       style="fill:none;fill-opacity:0;stroke:#000000;stroke-width:12;stroke-linecap:round;stroke-linejoin:round;stroke-miterlimit:0;stroke-opacity:1"
       d="m 726,246 h -24 v 48"
       id="path20" />
    <path
       style="fill:none;fill-opacity:0;stroke:#000000;stroke-width:12;stroke-linecap:round;stroke-linejoin:round;stroke-miterlimit:0;stroke-opacity:1"
       d="m 750,246 h 24 v 48"
       id="path23" />
    <path
       style="fill:none;fill-opacity:0;stroke:#000000;stroke-width:12;stroke-linecap:round;stroke-linejoin:round;stroke-miterlimit:0;stroke-opacity:1"
       d="m 834,222 v -24 h 24 v -24"
       id="path24" />
    <path
       style="fill:none;fill-opacity:0;stroke:#000000;stroke-width:12;stroke-linecap:round;stroke-linejoin:round;stroke-miterlimit:0;stroke-opacity:1"
       d="M 906,222 V 198 H 882 V 174"
       id="path25" />
    <path
       style="fill:none;fill-opacity:0;stroke:#000000;stroke-width:12;stroke-linecap:round;stroke-linejoin:round;stroke-miterlimit:0;stroke-opacity:1"
       d="m 834,246 v 48"
       id="path27" />
    <path
       style="fill:none;fill-opacity:0;stroke:#000000;stroke-width:12;stroke-linecap:round;stroke-linejoin:round;stroke-miterlimit:0;stroke-opacity:1"
       d="m 906,246 v 48"
       id="path28" />
    <path
       style="fill:none;fill-opacity:0;stroke:#000000;stroke-width:12;stroke-linecap:round;stroke-linejoin:round;stroke-miterlimit:0;stroke-opacity:1"
       d="m 306,270 h 24"
       id="path29"
       inkscape:label="t-ver-1" />
    <path
       style="fill:none;fill-opacity:0;stroke:#000000;stroke-width:12;stroke-linecap:round;stroke-linejoin:round;stroke-miterlimit:0;stroke-opacity:1"
       d="M 378,270 H 354"
       id="path30"
       inkscape:label="t-ver-2" />
    <path
       style="fill:none;fill-opacity:0;stroke:#000000;stroke-width:12;stroke-linecap:round;stroke-linejoin:round;stroke-miterlimit:0;stroke-opacity:1"
       d="m 834,270 h 24"
       id="path31"
       inkscape:label="t-ver-3" />
    <path
       style="fill:none;fill-opacity:0;stroke:#000000;stroke-width:12;stroke-linecap:round;stroke-linejoin:round;stroke-miterlimit:0;stroke-opacity:1"
       d="M 906,270 H 882"
       id="path33"
       inkscape:label="t-ver-4" />
    <path
       style="fill:none;stroke:#000000;stroke-width:12;stroke-linecap:round;stroke-linejoin:round;stroke-miterlimit:0;stroke-dasharray:none;stroke-opacity:1"
       d="M 330,246 V 222"
       id="path6"
       inkscape:label="square-1" />
    <path
       style="fill:none;stroke:#000000;stroke-width:12;stroke-linecap:round;stroke-linejoin:round;stroke-miterlimit:0;stroke-dasharray:none;stroke-opacity:1"
       d="M 354,246 V 222"
       id="path21"
       inkscape:label="square-2" />
    <path
       style="fill:none;stroke:#000000;stroke-width:12;stroke-linecap:square;stroke-linejoin:round;stroke-miterlimit:0;stroke-dasharray:none"
       d="M 336,246 V 222"
       id="path22"
       inkscape:label="square-3" />
    <path
       style="fill:none;stroke:#000000;stroke-width:12;stroke-linecap:square;stroke-linejoin:round;stroke-miterlimit:0;stroke-dasharray:none"
       d="M 348,246 V 222"
       id="path26"
       inkscape:label="square-4" />
    <path
       style="fill:none;stroke:#000000;stroke-width:12;stroke-linecap:square;stroke-linejoin:round;stroke-miterlimit:0"
       d="M 342,246 V 222"
       id="path34"
       inkscape:label="square-5" />
    <path
       style="fill:none;stroke:#000000;stroke-width:12;stroke-linecap:round;stroke-linejoin:round;stroke-miterlimit:0;stroke-dasharray:none;stroke-opacity:1"
       d="M 858,246 V 222"
       id="path6-8"
       inkscape:label="square-6" />
    <path
       style="fill:none;stroke:#000000;stroke-width:12;stroke-linecap:round;stroke-linejoin:round;stroke-miterlimit:0;stroke-dasharray:none;stroke-opacity:1"
       d="M 882,246 V 222"
       id="path21-2"
       inkscape:label="square-7" />
    <path
       style="fill:none;stroke:#000000;stroke-width:12;stroke-linecap:square;stroke-linejoin:round;stroke-miterlimit:0;stroke-dasharray:none"
       d="M 864,246 V 222"
       id="path22-4"
       inkscape:label="square-8" />
    <path
       style="fill:none;stroke:#000000;stroke-width:12;stroke-linecap:square;stroke-linejoin:round;stroke-miterlimit:0;stroke-dasharray:none"
       d="M 876,246 V 222"
       id="path26-5"
       inkscape:label="square-9" />
    <path
       style="fill:none;stroke:#000000;stroke-width:12;stroke-linecap:square;stroke-linejoin:round;stroke-miterlimit:0"
       d="M 870,246 V 222"
       id="path35"
       inkscape:label="square-10" />
  </g>
  <g
     inkscape:groupmode="layer"
     id="layer3"
     inkscape:label="signature"
     inkscape:highlight-color="#7fff7f">
    <path
       id="path38"
       style="fill:none;fill-opacity:0;stroke:#000000;stroke-width:12;stroke-linecap:round;stroke-linejoin:round;stroke-miterlimit:0;stroke-opacity:1"
       d="m 325.35898,518 c 7.14531,-12.37604 20.3504,-20 34.64102,-20 3.1826,0 6.23484,1.26428 8.48528,3.51472 C 370.73572,503.76516 372,506.8174 372,510 v 36"
       sodipodi:nodetypes="ccscc" />
    <path
       id="path37-7"
       style="fill:none;fill-opacity:0;stroke:#000000;stroke-width:12;stroke-linecap:round;stroke-linejoin:round;stroke-miterlimit:0;stroke-opacity:1"
       transform="scale(-1,1)"
       d="m -372,528 c 0,-16.56854 -13.43146,-30 -30,-30 -4.7739,0 -9.35227,1.89642 -12.72792,5.27208 C -418.10358,506.64773 -420,511.2261 -420,516 v 18 c 0,6.62742 -5.37258,12 -12,12 -15.29309,0 -29.24771,-8.71982 -35.95176,-22.46515"
       sodipodi:nodetypes="ccscccc" />
    <path
       id="path37-7-2"
       style="fill:none;fill-opacity:0;stroke:#000000;stroke-width:12;stroke-linecap:round;stroke-linejoin:round;stroke-miterlimit:0;stroke-opacity:1"
       transform="scale(-1,1)"
       d="m -468,408 v 300 c 0,6.62742 5.37258,12 12,12 13.25483,0 24,-10.74517 24,-24.00092 0,-53.31512 -12.32054,-105.90814 -36,-153.67512 V 528 c 0,-16.56854 -13.43146,-30 -30,-30 -4.7739,0 -9.35227,1.89642 -12.72792,5.27208 C -514.10358,506.64773 -516,511.2261 -516,516 c 0,8.83656 7.16344,16 16,16 3.31371,0 6,-1.79086 6,-4 0,-2.20914 -2.68629,-4 -6,-4 -1.47906,0 -2.83741,0.81618 -3.53179,2.12211 l -5.04336,8.20626 C -512.39423,541.51102 -519.86514,546 -528,546 c -15.29309,0 -29.24771,-8.71982 -35.95176,-22.46515"
       sodipodi:nodetypes="cccccccsccsccccc" />
    <path
       id="path37-7-2-3"
       style="fill:none;fill-opacity:0;stroke:#000000;stroke-width:12;stroke-linecap:round;stroke-linejoin:round;stroke-miterlimit:0;stroke-opacity:1"
       transform="scale(-1,1)"
       d="m -564,408 v 300 c 0,6.62742 5.37258,12 12,12 13.25483,0 24,-10.74517 24,-24.00092 0,-53.31512 -12.32054,-105.90814 -36,-153.67512 V 528 c 0,-16.56854 -13.43146,-30 -30,-30 -4.7739,0 -9.35227,1.89642 -12.72792,5.27208 C -610.10358,506.64773 -612,511.2261 -612,516 v 18 c 0,6.62742 -5.37258,12 -12,12 -15.79805,0 -30.11617,-9.29829 -36.54182,-23.73053"
       sodipodi:nodetypes="cccccccscccc" />
    <path
       id="path37-83"
       style="fill:none;fill-opacity:0;stroke:#000000;stroke-width:12;stroke-linecap:round;stroke-linejoin:round;stroke-miterlimit:0;stroke-opacity:1"
       transform="scale(-1,1)"
       d="m -708,516 c 0,-9.94113 8.05887,-18 18,-18 16.56854,0 30,13.43146 30,30 0,9.94113 -8.05887,18 -18,18 -7.95649,0 -15.58711,-3.16071 -21.2132,-8.7868 C -704.83929,531.58711 -708,523.95649 -708,516"
       sodipodi:nodetypes="ccccsc" />
    <path
       id="path37-89"
       style="fill:none;fill-opacity:0;stroke:#000000;stroke-width:12;stroke-linecap:round;stroke-linejoin:round;stroke-miterlimit:0;stroke-opacity:1"
       transform="scale(-1,1)"
       d="m -708,498 v 36 c 0,6.62742 -5.37258,12 -12,12 -14.29062,0 -27.49571,-7.62396 -34.64102,-20"
       sodipodi:nodetypes="cccc" />
    <path
       style="fill:none;fill-opacity:0;stroke:#000000;stroke-width:12;stroke-linecap:round;stroke-linejoin:round;stroke-miterlimit:0;stroke-opacity:1"
       d="M 174,570 H 906"
       id="path41" />
  </g>
  <g
     inkscape:groupmode="layer"
     id="layer4"
     inkscape:label="name"
     inkscape:highlight-color="#ff7f7f">
    <path
       style="fill:none;fill-opacity:0;stroke:#000000;stroke-width:12;stroke-linecap:round;stroke-linejoin:round;stroke-miterlimit:0;stroke-opacity:1"
       d="M 174,906 V 810"
       id="path46" />
    <path
       style="fill:none;fill-opacity:0;stroke:#000000;stroke-width:12;stroke-linecap:round;stroke-linejoin:round;stroke-miterlimit:0;stroke-opacity:1"
       d="m 174,810 72,72"
       id="path47" />
    <path
       style="fill:none;fill-opacity:0;stroke:#000000;stroke-width:12;stroke-linecap:round;stroke-linejoin:round;stroke-miterlimit:0;stroke-opacity:1"
       d="M 246,906 V 810"
       id="path48" />
    <path
       id="path37-83-5"
       style="fill:none;fill-opacity:0;stroke:#000000;stroke-width:12;stroke-linecap:round;stroke-linejoin:round;stroke-miterlimit:0;stroke-opacity:1"
       transform="scale(-1,1)"
       d="m -318,876 c 0,-9.94113 8.05887,-18 18,-18 16.56854,0 30,13.43146 30,30 0,9.94113 -8.05887,18 -18,18 -7.95649,0 -15.58711,-3.16071 -21.2132,-8.7868 C -314.83929,891.58711 -318,883.95649 -318,876"
       sodipodi:nodetypes="ccccsc" />
    <path
       id="path37-92"
       style="fill:none;fill-opacity:0;stroke:#000000;stroke-width:12;stroke-linecap:round;stroke-linejoin:round;stroke-miterlimit:0;stroke-opacity:1"
       transform="scale(-1)"
       d="m -318,-858 v -66 c 0,-16.56854 13.43146,-30 30,-30 9.94113,0 18,8.05887 18,18"
       sodipodi:nodetypes="cccc" />
    <path
       id="path37-88"
       style="fill:none;fill-opacity:0;stroke:#000000;stroke-width:12;stroke-linecap:round;stroke-linejoin:round;stroke-miterlimit:0;stroke-opacity:1"
       transform="scale(-1,1)"
       d="m -271.6077,834 c 0,-5.43127 -3.64797,-10.18539 -8.89417,-11.59111 -5.2462,-1.40571 -10.7825,0.8875 -13.49813,5.59111 -2.71563,4.70361 -8.25193,6.99682 -13.49813,5.59111 -5.2462,-1.40572 -8.89417,-6.15984 -8.89417,-11.59111"
       sodipodi:nodetypes="cscsc" />
    <path
       style="fill:none;fill-opacity:0;stroke:#000000;stroke-width:12;stroke-linecap:round;stroke-linejoin:round;stroke-miterlimit:0;stroke-opacity:1"
       d="M 384,906 V 810"
       id="path46-9" />
    <path
       style="fill:none;fill-opacity:0;stroke:#000000;stroke-width:12;stroke-linecap:round;stroke-linejoin:round;stroke-miterlimit:0;stroke-opacity:1"
       d="m 384,810 72,72"
       id="path47-8" />
    <path
       style="fill:none;fill-opacity:0;stroke:#000000;stroke-width:12;stroke-linecap:round;stroke-linejoin:round;stroke-miterlimit:0;stroke-opacity:1"
       d="M 456,906 V 810"
       id="path48-9" />
    <path
       id="path37-83-5-0"
       style="fill:none;fill-opacity:0;stroke:#000000;stroke-width:12;stroke-linecap:round;stroke-linejoin:round;stroke-miterlimit:0;stroke-opacity:1"
       transform="scale(-1,1)"
       d="m -528,876 c 0,-9.94113 8.05887,-18 18,-18 16.56854,0 30,13.43146 30,30 0,9.94113 -8.05887,18 -18,18 -7.95649,0 -15.58711,-3.16071 -21.2132,-8.7868 C -524.83929,891.58711 -528,883.95649 -528,876"
       sodipodi:nodetypes="ccccsc" />
    <path
       style="fill:none;fill-opacity:0;stroke:#000000;stroke-width:12;stroke-linecap:round;stroke-linejoin:round;stroke-miterlimit:0;stroke-opacity:1"
       d="m 528,858 v 48"
       id="path50" />
    <path
       style="fill:none;fill-opacity:0;stroke:#000000;stroke-width:12;stroke-linecap:round;stroke-linejoin:round;stroke-miterlimit:0;stroke-opacity:1"
       d="m 552,858 v 48"
       id="path50-8" />
    <path
       id="path51"
       style="fill:none;fill-opacity:0;stroke:#000000;stroke-width:12;stroke-linecap:round;stroke-linejoin:round;stroke-miterlimit:0;stroke-opacity:1"
       d="m 552,882 c 0,-13.25483 10.74517,-24 24,-24 3.1826,0 6.23484,1.26428 8.48528,3.51472 C 586.73572,863.76516 588,866.8174 588,870 v 36"
       sodipodi:nodetypes="ccscc" />
    <path
       id="path51-2"
       style="fill:none;fill-opacity:0;stroke:#000000;stroke-width:12;stroke-linecap:round;stroke-linejoin:round;stroke-miterlimit:0;stroke-opacity:1"
       d="m 588,882 c 0,-13.25483 10.74517,-24 24,-24 3.1826,0 6.23484,1.26428 8.48528,3.51472 C 622.73572,863.76516 624,866.8174 624,870 v 36"
       sodipodi:nodetypes="ccscc" />
    <path
       style="fill:none;fill-opacity:0;stroke:#000000;stroke-width:12;stroke-linecap:round;stroke-linejoin:round;stroke-miterlimit:0;stroke-opacity:1"
       d="m 690,810 v 96"
       id="path52" />
    <path
       style="fill:none;fill-opacity:0;stroke:#000000;stroke-width:12;stroke-linecap:round;stroke-linejoin:round;stroke-miterlimit:0;stroke-opacity:1"
       d="m 690,882 72,-72"
       id="path53" />
    <path
       style="fill:none;fill-opacity:0;stroke:#000000;stroke-width:12;stroke-linecap:round;stroke-linejoin:round;stroke-miterlimit:0;stroke-opacity:1"
       d="m 714,858 48,48"
       id="path54" />
    <path
       style="fill:none;fill-opacity:0;stroke:#000000;stroke-width:12;stroke-linecap:round;stroke-linejoin:round;stroke-miterlimit:0;stroke-opacity:1"
       d="m 786,810 v 96"
       id="path52-1" />
    <path
       id="path55"
       style="fill:none;fill-opacity:0;stroke:#000000;stroke-width:12;stroke-linecap:round;stroke-linejoin:round;stroke-miterlimit:0;stroke-opacity:1"
       d="m 786,888 c 0,-16.56854 13.43146,-30 30,-30 4.7739,0 9.35227,1.89642 12.72792,5.27208 C 832.10358,866.64773 834,871.2261 834,876 v 30"
       sodipodi:nodetypes="ccscc" />
    <path
       id="path37-83-5-0-2"
       style="fill:none;fill-opacity:0;stroke:#000000;stroke-width:12;stroke-linecap:round;stroke-linejoin:round;stroke-miterlimit:0;stroke-opacity:1"
       transform="scale(-1,1)"
       d="m -906,876 c 0,-9.94113 8.05887,-18 18,-18 16.56854,0 30,13.43146 30,30 0,9.94113 -8.05887,18 -18,18 -7.95649,0 -15.58711,-3.16071 -21.2132,-8.7868 C -902.83929,891.58711 -906,883.95649 -906,876"
       sodipodi:nodetypes="ccccsc" />
    <path
       style="fill:none;fill-opacity:0;stroke:#000000;stroke-width:12;stroke-linecap:round;stroke-linejoin:round;stroke-miterlimit:0;stroke-opacity:1"
       d="m 905.99998,858 v 48"
       id="path50-5" />
  </g>
</svg>
